# Blender v2.78 (sub 0) OBJ File: 'missile.blend'
# www.blender.org
mtllib missile.mtl
o Icosphere
v 0.065443 2.815098 0.201418
v -0.171337 2.815097 0.124482
v -0.171337 2.815097 -0.124482
v 0.065443 2.815098 -0.201418
v 0.211783 2.815084 -0.000000
v -0.000001 3.463690 -0.000000
v -0.000001 -0.165197 -0.205458
v 0.120765 -0.165197 -0.166219
v -0.195403 -0.165197 -0.063489
v -0.120766 -0.165197 -0.166219
v -0.120766 -0.165197 0.166219
v -0.195403 -0.165197 0.063489
v 0.120765 -0.165197 0.166219
v -0.000001 -0.165197 0.205458
v 0.195402 -0.165197 -0.063489
v 0.301120 2.275372 0.097838
v 0.301120 2.275372 -0.097838
v -0.000001 2.275372 0.316616
v 0.186102 2.275372 0.256148
v -0.301121 2.275372 0.097838
v -0.186103 2.275372 0.256148
v -0.186103 2.275372 -0.256148
v -0.301121 2.275372 -0.097838
v 0.186102 2.275372 -0.256148
v -0.000001 2.275372 -0.316616
v 0.162950 3.083998 0.118390
v -0.062243 3.084003 0.191559
v -0.201418 3.083997 -0.000000
v -0.062243 3.084003 -0.191559
v 0.162950 3.083998 -0.118390
v 0.038466 3.314164 0.118390
v 0.124482 3.314161 -0.000000
v -0.100709 3.314163 0.073168
v -0.100709 3.314163 -0.073168
v 0.038466 3.314164 -0.118390
v 0.195402 -0.165197 0.063489
v -0.000001 -0.634743 -0.192158
v 0.620874 -1.304253 -0.854559
v -0.182754 -0.634743 -0.059379
v -0.620875 -1.304253 -0.854559
v -0.112948 -0.634743 0.155459
v -1.004597 -1.304253 0.326409
v 0.112947 -0.634743 0.155459
v -0.000001 -1.304253 1.056295
v 0.182753 -0.634743 -0.059379
v 1.004596 -1.304253 0.326409
v -0.206387 1.799878 -0.284066
v -0.333940 1.799878 0.108502
v -0.333940 1.799878 -0.108502
v -0.000001 1.799878 0.351124
v 0.333939 1.799878 -0.108502
v 0.333939 1.799878 0.108502
v 0.206385 1.799878 0.284066
v -0.000001 1.799878 -0.351124
v 0.206385 1.799878 -0.284066
v -0.206387 1.799878 0.284066
v -0.333940 1.731833 -0.108502
v 0.206385 1.731833 0.284066
v 0.206385 1.731833 -0.284066
v -0.206387 1.731833 0.284066
v -0.206387 1.731833 -0.284066
v -0.333940 1.731833 0.108502
v -0.000001 1.731833 0.351124
v 0.333939 1.731833 -0.108502
v 0.333939 1.731833 0.108502
v -0.000001 1.731833 -0.351124
v -0.000001 -0.634743 0.155459
v -0.147851 -0.634743 0.048040
v -0.091377 -0.634743 -0.125768
v 0.091376 -0.634743 -0.125768
v 0.147850 -0.634743 0.048040
v -0.000001 -0.992718 0.000001
v -0.318084 0.994838 -0.103350
v 0.196585 0.994838 0.270577
v 0.196585 0.994838 -0.270577
v -0.196587 0.994838 0.270577
v -0.196587 0.994838 -0.270577
v -0.318084 0.994838 0.103350
v -0.000001 0.994838 0.334452
v 0.318082 0.994838 -0.103350
v 0.318082 0.994838 0.103350
v -0.000001 0.994838 -0.334452
v -0.255725 0.350368 -0.083089
v 0.158046 0.350368 0.217532
v 0.158046 0.350368 -0.217532
v -0.158047 0.350368 0.217532
v -0.158047 0.350368 -0.217532
v -0.255725 0.350368 0.083089
v -0.000001 0.350368 0.268884
v 0.255724 0.350368 -0.083089
v 0.255724 0.350368 0.083089
v -0.000001 0.350368 -0.268884
vn 0.9855 0.1677 -0.0255
vn 0.8029 0.1224 -0.5834
vn 0.3288 0.1677 -0.9294
vn 0.2803 0.1677 -0.9451
vn -0.3067 0.1224 -0.9439
vn -0.7823 0.1677 -0.5999
vn -0.8123 0.1677 -0.5586
vn -0.9925 0.1224 0.0000
vn -0.8123 0.1677 0.5586
vn -0.7823 0.1677 0.5999
vn -0.3067 0.1224 0.9439
vn 0.2803 0.1677 0.9451
vn 0.3288 0.1677 0.9294
vn 0.8029 0.1224 0.5834
vn 0.9855 0.1677 0.0255
vn 0.3049 0.1633 -0.9383
vn 0.3069 -0.1162 -0.9446
vn -0.7982 0.1633 -0.5799
vn 0.8035 -0.1162 0.5838
vn -0.7982 0.1633 0.5799
vn 0.9932 -0.1162 0.0000
vn 0.3049 0.1633 0.9383
vn -0.3069 -0.1162 -0.9446
vn 0.9866 0.1633 0.0000
vn 0.3069 -0.1162 0.9446
vn -0.9932 -0.1162 0.0000
vn -0.3069 -0.1162 0.9446
vn 0.8035 -0.1162 -0.5838
vn -0.8035 -0.1162 0.5838
vn -0.8035 -0.1162 -0.5838
vn 0.5309 0.1823 -0.8276
vn 0.9512 0.1823 0.2491
vn -0.0570 0.1823 0.9816
vn -0.9159 0.1823 0.3575
vn 0.6231 0.1823 -0.7606
vn -0.5309 0.1823 -0.8276
vn -0.6231 0.1823 -0.7606
vn -0.9512 0.1823 0.2491
vn 0.9159 0.1823 0.3575
vn 0.0570 0.1823 0.9816
vn 0.5673 -0.8026 -0.1843
vn 0.3506 -0.8026 0.4826
vn -0.3506 -0.8026 0.4826
vn -0.5673 -0.8026 -0.1843
vn 0.0000 -0.8026 -0.5965
vn -0.8088 -0.0215 -0.5876
vn -0.8088 -0.0215 0.5876
vn 0.8088 -0.0215 -0.5876
vn -0.3089 -0.0215 0.9508
vn -0.9998 -0.0215 0.0000
vn 0.3089 -0.0215 0.9508
vn -0.3089 -0.0215 -0.9508
vn 0.9998 -0.0215 0.0000
vn 0.8088 -0.0215 0.5876
vn 0.3089 -0.0215 -0.9508
vn 0.3186 0.1723 0.9321
vn -0.7881 0.1723 0.5910
vn -0.8056 0.1723 -0.5669
vn 0.2902 0.1723 -0.9413
vn 0.9849 0.1723 -0.0149
vn 0.6710 0.5586 -0.4875
vn 0.7412 0.4009 -0.5385
vn 0.3186 0.1723 -0.9321
vn -0.2563 0.5586 -0.7888
vn -0.2831 0.4009 -0.8713
vn -0.7881 0.1723 -0.5910
vn -0.8294 0.5586 0.0000
vn -0.9161 0.4009 0.0000
vn -0.8056 0.1723 0.5669
vn -0.2563 0.5586 0.7888
vn -0.2831 0.4009 0.8713
vn 0.2902 0.1723 0.9413
vn 0.6710 0.5586 0.4875
vn 0.7412 0.4009 0.5385
vn 0.9849 0.1723 0.0149
vn -0.8723 -0.3983 0.2834
vn -0.8071 0.0689 -0.5864
vn -0.8071 0.0689 0.5864
vn 0.8071 0.0689 -0.5864
vn -0.3083 0.0689 0.9488
vn -0.9976 0.0689 0.0000
vn 0.3083 0.0689 0.9488
vn -0.3083 0.0689 -0.9488
vn 0.9976 0.0689 0.0000
vn 0.8071 0.0689 0.5864
vn 0.3083 0.0689 -0.9488
vn -0.8090 0.0000 -0.5878
vn -0.8090 0.0000 0.5878
vn 0.8090 0.0000 -0.5878
vn -0.3090 0.0000 0.9511
vn -1.0000 0.0000 0.0000
vn 0.3090 0.0000 0.9511
vn -0.3090 0.0000 -0.9511
vn 1.0000 0.0000 0.0000
vn 0.8090 0.0000 0.5878
vn 0.3090 0.0000 -0.9511
vn 0.8723 -0.3983 0.2834
vn -0.5391 -0.3983 -0.7421
vn 0.5391 -0.3983 -0.7421
vn 0.0000 -0.3983 0.9172
vn -0.8053 -0.0963 -0.5851
vn -0.8053 -0.0963 0.5851
vn 0.8053 -0.0963 -0.5851
vn -0.3076 -0.0963 0.9466
vn -0.9954 -0.0963 0.0000
vn 0.3076 -0.0963 0.9466
vn -0.3076 -0.0963 -0.9466
vn 0.9954 -0.0963 0.0000
vn 0.8053 -0.0963 0.5851
vn 0.3076 -0.0963 -0.9466
usemtl Material.001
s off
f 17//1 30//1 5//1
f 17//2 24//2 30//2
f 24//3 4//3 30//3
f 25//4 29//4 4//4
f 25//5 22//5 29//5
f 22//6 3//6 29//6
f 23//7 28//7 3//7
f 23//8 20//8 28//8
f 20//9 2//9 28//9
f 21//10 27//10 2//10
f 21//11 18//11 27//11
f 18//12 1//12 27//12
f 19//13 26//13 1//13
f 19//14 16//14 26//14
f 16//15 5//15 26//15
f 24//16 25//16 4//16
f 92//17 85//17 8//17 7//17
f 22//18 23//18 3//18
f 91//19 84//19 13//19 36//19
f 20//20 21//20 2//20
f 90//21 91//21 36//21 15//21
f 18//22 19//22 1//22
f 87//23 92//23 7//23 10//23
f 16//24 17//24 5//24
f 84//25 89//25 14//25 13//25
f 88//26 83//26 9//26 12//26
f 89//27 86//27 11//27 14//27
f 85//28 90//28 15//28 8//28
f 86//29 88//29 12//29 11//29
f 83//30 87//30 10//30 9//30
f 10//31 7//31 37//31 40//31
f 8//32 15//32 45//32 38//32
f 11//33 12//33 42//33 41//33
f 14//34 11//34 41//34 44//34
f 15//35 36//35 46//35 45//35
f 7//36 8//36 38//36 37//36
f 12//37 9//37 39//37 42//37
f 9//38 10//38 40//38 39//38
f 13//39 14//39 44//39 43//39
f 36//40 13//40 43//40 46//40
f 39//41 68//41 41//41 42//41
f 37//42 69//42 39//42 40//42
f 38//43 45//43 70//43 37//43
f 43//44 71//44 45//44 46//44
f 44//45 41//45 67//45 43//45
f 57//46 61//46 77//46 73//46
f 60//47 62//47 78//47 76//47
f 59//48 64//48 80//48 75//48
f 63//49 60//49 76//49 79//49
f 62//50 57//50 73//50 78//50
f 58//51 63//51 79//51 74//51
f 61//52 66//52 82//52 77//52
f 64//53 65//53 81//53 80//53
f 65//54 58//54 74//54 81//54
f 66//55 59//55 75//55 82//55
usemtl Material.002
f 1//56 26//56 31//56
f 2//57 27//57 33//57
f 3//58 28//58 34//58
f 4//59 29//59 35//59
f 5//60 30//60 32//60
f 32//61 35//61 6//61
f 32//62 30//62 35//62
f 30//63 4//63 35//63
f 35//64 34//64 6//64
f 35//65 29//65 34//65
f 29//66 3//66 34//66
f 34//67 33//67 6//67
f 34//68 28//68 33//68
f 28//69 2//69 33//69
f 33//70 31//70 6//70
f 33//71 27//71 31//71
f 27//72 1//72 31//72
f 31//73 32//73 6//73
f 31//74 26//74 32//74
f 26//75 5//75 32//75
usemtl Material.003
f 68//76 39//76 72//76
f 23//77 22//77 47//77 49//77
f 21//78 20//78 48//78 56//78
f 24//79 17//79 51//79 55//79
f 18//80 21//80 56//80 50//80
f 20//81 23//81 49//81 48//81
f 19//82 18//82 50//82 53//82
f 22//83 25//83 54//83 47//83
f 17//84 16//84 52//84 51//84
f 16//85 19//85 53//85 52//85
f 25//86 24//86 55//86 54//86
f 49//87 47//87 61//87 57//87
f 56//88 48//88 62//88 60//88
f 55//89 51//89 64//89 59//89
f 50//90 56//90 60//90 63//90
f 48//91 49//91 57//91 62//91
f 53//92 50//92 63//92 58//92
f 47//93 54//93 66//93 61//93
f 51//94 52//94 65//94 64//94
f 52//95 53//95 58//95 65//95
f 54//96 55//96 59//96 66//96
f 45//97 71//97 72//97
f 41//76 68//76 72//76
f 69//98 37//98 72//98
f 39//98 69//98 72//98
f 70//99 45//99 72//99
f 67//100 41//100 72//100
f 37//99 70//99 72//99
f 71//97 43//97 72//97
f 43//100 67//100 72//100
f 73//101 77//101 87//101 83//101
f 76//102 78//102 88//102 86//102
f 75//103 80//103 90//103 85//103
f 79//104 76//104 86//104 89//104
f 78//105 73//105 83//105 88//105
f 74//106 79//106 89//106 84//106
f 77//107 82//107 92//107 87//107
f 80//108 81//108 91//108 90//108
f 81//109 74//109 84//109 91//109
f 82//110 75//110 85//110 92//110
