# Blender v2.78 (sub 0) OBJ File: ''
# www.blender.org
mtllib ufo.mtl
o Icosphere
v 0.000001 -0.387549 -0.000000
v 0.415000 -0.070521 0.301511
v -0.158512 -0.070522 0.487859
v -0.512965 -0.070519 -0.000000
v -0.158512 -0.070522 -0.487859
v 0.415000 -0.070521 -0.301511
v 2.175516 0.304207 0.706857
v -0.093170 -0.301897 0.286754
v 0.243929 -0.301897 0.177222
v 0.150760 -0.115553 0.463980
v 0.487859 -0.115552 -0.000000
v 0.243929 -0.301897 -0.177222
v -0.301513 -0.301895 -0.000000
v -0.394686 -0.115552 0.286755
v -0.093170 -0.301897 -0.286754
v -0.394686 -0.115552 -0.286755
v 0.150760 -0.115553 -0.463980
v 2.254562 0.126763 0.732540
v 2.254562 0.126763 -0.732540
v 0.000000 0.126763 2.370583
v 1.393395 0.126763 1.917841
v -2.254562 0.126763 0.732540
v -1.393395 0.126763 1.917841
v -1.393395 0.126763 -1.917841
v -2.254562 0.126763 -0.732540
v 1.393395 0.126763 -1.917841
v 0.000000 0.126763 -2.370583
v 0.863067 0.613424 -0.000000
v 0.266697 0.613428 -0.820825
v -0.698238 0.613428 -0.507293
v -0.698238 0.613428 0.507293
v 0.266697 0.613428 0.820825
v 2.175516 0.304207 -0.706857
v -0.000000 0.304207 2.287469
v 1.344541 0.304207 1.850601
v -2.175516 0.304207 0.706857
v -1.344542 0.304207 1.850601
v -1.344542 0.304207 -1.850601
v -2.175516 0.304207 -0.706857
v 1.344541 0.304207 -1.850601
v -0.000000 0.304207 -2.287469
v 0.664061 0.689192 0.482467
v -0.253653 0.689193 0.780647
v -0.820824 0.689191 -0.000000
v -0.253653 0.689193 -0.780647
v 0.664061 0.689192 -0.482467
v 0.251095 0.727955 0.772806
v -0.657390 0.727954 0.477616
v -0.657390 0.727954 -0.477616
v 0.251095 0.727955 -0.772806
v 0.812577 0.727951 0.000000
v -0.000000 1.224634 0.000000
v 0.624816 0.798542 0.453954
v -0.238662 0.798544 0.734512
v -0.772315 0.798542 0.000000
v -0.238662 0.798544 -0.734512
v 0.624816 0.798542 -0.453954
v 0.148138 1.088451 0.455930
v 0.479396 1.088448 0.000000
v -0.387838 1.088451 0.281778
v -0.387838 1.088451 -0.281778
v 0.148138 1.088451 -0.455930
vn -0.0154 0.3876 0.9217
vn 0.8718 0.3876 -0.2995
vn -0.5293 0.3876 0.7547
vn -0.8814 0.3876 0.2701
vn -0.8814 0.3876 -0.2701
vn -0.5293 0.3876 -0.7547
vn 0.8718 0.3876 0.2995
vn -0.0154 0.3876 -0.9217
vn 0.5543 0.3876 -0.7366
vn 0.5543 0.3876 0.7366
vn 0.4075 0.6658 0.6250
vn -0.4685 0.6658 0.5807
vn -0.6971 0.6658 -0.2661
vn 0.0377 0.6658 -0.7452
vn 0.7204 0.6658 -0.1944
vn 0.2680 0.9435 -0.1947
vn 0.4871 0.7985 -0.3539
vn 0.4075 0.6658 -0.6250
vn -0.1024 0.9435 -0.3151
vn -0.1860 0.7985 -0.5726
vn -0.4685 0.6658 -0.5807
vn -0.3313 0.9435 0.0000
vn -0.6021 0.7985 0.0000
vn -0.6971 0.6658 0.2661
vn -0.1024 0.9435 0.3151
vn -0.1860 0.7985 0.5726
vn 0.0377 0.6658 0.7452
vn 0.2680 0.9435 0.1947
vn 0.4871 0.7985 0.3539
vn 0.7204 0.6658 0.1944
vn 0.0673 -0.9843 0.1633
vn -0.1345 -0.9843 0.1145
vn -0.1504 -0.9843 -0.0925
vn 0.0415 -0.9843 -0.1716
vn 0.1761 -0.9843 -0.0136
vn 0.0911 -0.9936 0.0662
vn -0.0348 -0.9936 0.1070
vn -0.1126 -0.9936 0.0000
vn -0.0348 -0.9936 -0.1070
vn 0.0911 -0.9936 -0.0662
vn 0.0420 -0.9907 -0.1292
vn -0.1345 -0.9843 -0.1145
vn -0.1099 -0.9907 -0.0799
vn -0.1504 -0.9843 0.0925
vn -0.1099 -0.9907 0.0799
vn 0.0415 -0.9843 0.1716
vn 0.0420 -0.9907 0.1292
vn 0.1761 -0.9843 0.0136
vn 0.1359 -0.9907 0.0000
vn 0.0673 -0.9843 -0.1633
vn 0.7390 0.4069 0.5369
vn 0.2823 0.4069 -0.8688
vn 0.7390 0.4069 -0.5369
vn -0.7390 0.4069 -0.5369
vn -0.7390 0.4069 0.5369
vn -0.2823 0.4069 -0.8688
vn 0.2823 0.4069 0.8688
vn -0.9135 0.4069 0.0000
vn -0.2823 0.4069 0.8688
vn 0.9135 0.4069 0.0000
vn 0.2531 0.9663 0.0473
vn 0.2212 0.9619 -0.1607
vn 0.0332 0.9663 -0.2554
vn 0.1232 0.9663 -0.2261
vn -0.0845 0.9619 -0.2600
vn -0.2326 0.9663 -0.1105
vn -0.1770 0.9663 -0.1871
vn -0.2734 0.9619 0.0000
vn -0.1770 0.9663 0.1871
vn -0.2326 0.9663 0.1105
vn -0.0845 0.9619 0.2600
vn 0.1232 0.9663 0.2261
vn 0.0332 0.9663 0.2554
vn 0.2212 0.9619 0.1607
vn 0.2531 0.9663 -0.0473
vn 0.0709 0.9733 -0.2181
vn -0.1855 0.9733 -0.1348
vn -0.1855 0.9733 0.1348
vn 0.0709 0.9733 0.2181
vn 0.2293 0.9733 0.0000
vn 0.1024 -0.9435 0.3151
vn 0.7002 -0.6617 0.2680
vn -0.2680 -0.9435 0.1947
vn -0.2680 -0.9435 -0.1947
vn 0.1024 -0.9435 -0.3151
vn 0.4713 -0.6617 -0.5831
vn 0.1876 -0.7947 -0.5773
vn -0.0385 -0.6617 -0.7488
vn -0.4089 -0.6617 -0.6284
vn -0.4911 -0.7947 -0.3568
vn -0.7240 -0.6617 -0.1947
vn -0.7240 -0.6617 0.1947
vn -0.4911 -0.7947 0.3568
vn -0.4089 -0.6617 0.6284
vn 0.7002 -0.6617 -0.2680
vn 0.6071 -0.7947 0.0000
vn 0.3313 -0.9435 0.0000
vn -0.0385 -0.6617 0.7488
vn 0.1876 -0.7947 0.5773
vn 0.4713 -0.6617 0.5831
usemtl Material.002
s off
f 43//1 32//1 47//1 54//1
f 28//2 46//2 57//2 51//2
f 31//3 43//3 54//3 48//3
f 44//4 31//4 48//4 55//4
f 30//5 44//5 55//5 49//5
f 45//6 30//6 49//6 56//6
f 42//7 28//7 51//7 53//7
f 29//8 45//8 56//8 50//8
f 46//9 29//9 50//9 57//9
f 32//10 42//10 53//10 47//10
f 47//11 53//11 58//11
f 48//12 54//12 60//12
f 49//13 55//13 61//13
f 50//14 56//14 62//14
f 51//15 57//15 59//15
f 59//16 62//16 52//16
f 59//17 57//17 62//17
f 57//18 50//18 62//18
f 62//19 61//19 52//19
f 62//20 56//20 61//20
f 56//21 49//21 61//21
f 61//22 60//22 52//22
f 61//23 55//23 60//23
f 55//24 48//24 60//24
f 60//25 58//25 52//25
f 60//26 54//26 58//26
f 54//27 47//27 58//27
f 58//28 59//28 52//28
f 58//29 53//29 59//29
f 53//30 51//30 59//30
usemtl Material.003
f 2//31 11//31 18//31
f 3//32 10//32 20//32
f 4//33 14//33 22//33
f 5//34 16//34 24//34
f 6//35 17//35 26//35
f 2//36 18//36 21//36
f 3//37 20//37 23//37
f 4//38 22//38 25//38
f 5//39 24//39 27//39
f 6//40 26//40 19//40
f 26//41 17//41 27//41
f 17//42 5//42 27//42
f 24//43 16//43 25//43
f 16//44 4//44 25//44
f 22//45 14//45 23//45
f 14//46 3//46 23//46
f 20//47 10//47 21//47
f 10//48 2//48 21//48
f 18//49 11//49 19//49
f 11//50 6//50 19//50
f 21//51 18//51 7//51 35//51
f 26//52 27//52 41//52 40//52
f 19//53 26//53 40//53 33//53
f 24//54 25//54 39//54 38//54
f 22//55 23//55 37//55 36//55
f 27//56 24//56 38//56 41//56
f 20//57 21//57 35//57 34//57
f 25//58 22//58 36//58 39//58
f 23//59 20//59 34//59 37//59
f 18//60 19//60 33//60 7//60
f 33//61 46//61 28//61
f 33//62 40//62 46//62
f 40//63 29//63 46//63
f 41//64 45//64 29//64
f 41//65 38//65 45//65
f 38//66 30//66 45//66
f 39//67 44//67 30//67
f 39//68 36//68 44//68
f 36//69 31//69 44//69
f 37//70 43//70 31//70
f 37//71 34//71 43//71
f 34//72 32//72 43//72
f 35//73 42//73 32//73
f 35//74 7//74 42//74
f 7//75 28//75 42//75
f 40//76 41//76 29//76
f 38//77 39//77 30//77
f 36//78 37//78 31//78
f 34//79 35//79 32//79
f 7//80 33//80 28//80
usemtl Material.004
f 1//81 9//81 8//81
f 2//82 9//82 11//82
f 1//83 8//83 13//83
f 1//84 13//84 15//84
f 1//85 15//85 12//85
f 12//86 17//86 6//86
f 12//87 15//87 17//87
f 15//88 5//88 17//88
f 15//89 16//89 5//89
f 15//90 13//90 16//90
f 13//91 4//91 16//91
f 13//92 14//92 4//92
f 13//93 8//93 14//93
f 8//94 3//94 14//94
f 11//95 12//95 6//95
f 11//96 9//96 12//96
f 9//97 1//97 12//97
f 8//98 10//98 3//98
f 8//99 9//99 10//99
f 9//100 2//100 10//100
